<?xml version="1.0" encoding="UTF-8"?>
<svg id="Layer_1" xmlns="http://www.w3.org/2000/svg" version="1.1" viewBox="0 0 37 20">
  <!-- Generator: Adobe Illustrator 29.3.0, SVG Export Plug-In . SVG Version: 2.1.0 Build 146)  -->
  <defs>
    <style>
      .st0 {
        fill: #fde3a7;
      }
    </style>
  </defs>
  <path class="st0" d="M15.5,6.5c0,1-.2,1.9-.6,2.9-.4,1-1.1,2-2.1,3.2l-5.7,6.8H1.7l5.6-6.3.2-.2c-.1,0-.3,0-.5,0-.2,0-.3,0-.5,0-.9,0-1.7-.1-2.3-.4-.7-.3-1.2-.7-1.7-1.1-.5-.5-.8-1-1-1.7-.2-.6-.4-1.3-.4-1.9s.2-1.9.5-2.7.8-1.6,1.5-2.3c.7-.6,1.5-1.2,2.4-1.5,1-.4,2.1-.6,3.3-.6s1.8.1,2.6.4c.8.2,1.5.6,2.1,1.1.6.5,1.1,1.1,1.4,1.8.3.7.5,1.6.5,2.5ZM11.3,6.6c0-.4,0-.7-.2-1.1-.1-.3-.3-.6-.6-.8-.2-.2-.5-.4-.8-.5-.3-.1-.6-.2-1-.2-1,0-1.8.3-2.4.9-.6.6-.9,1.4-.9,2.5s0,.8.2,1.1c.1.3.3.6.6.8.2.2.5.4.8.5.3.1.6.2.9.2.5,0,1,0,1.4-.3.4-.2.8-.4,1.1-.7.3-.3.5-.7.7-1.1s.2-.9.2-1.3Z"/>
  <path class="st0" d="M18,1.1h6.8c1,0,2.1.1,3.1.4s1.9.7,2.8,1.4,1.5,1.4,2,2.4c.5,1,.8,2.1.8,3.5s-.3,3.1-.8,4.4c-.6,1.3-1.3,2.4-2.3,3.3-1,.9-2.2,1.6-3.5,2.1-1.4.5-2.8.7-4.4.7h-7.5L18,1.1ZM19.7,15.7h2.8c1.1,0,2-.2,2.8-.5.8-.4,1.5-.8,2-1.4.5-.6.9-1.3,1.2-2,.3-.8.4-1.6.4-2.4s0-1.2-.3-1.8-.5-1-.9-1.5c-.4-.4-.9-.7-1.6-1-.6-.2-1.4-.4-2.2-.4h-2.3l-1.9,10.9Z"/>
  <path class="st0" d="M36.5,17c0,.4,0,.7-.2,1-.1.3-.3.6-.5.8-.2.2-.5.4-.8.6-.3.1-.7.2-1,.2-.7,0-1.3-.2-1.7-.6-.4-.4-.7-.9-.7-1.6s.2-1.4.7-1.9c.5-.5,1.1-.7,1.9-.7s1.2.2,1.7.6c.4.4.7,1,.7,1.6Z"/>
</svg>